<svg width="743" height="511" viewBox="0 0 743 511" fill="none" xmlns="http://www.w3.org/2000/svg">
<path d="M317.083 71.3789V100.27H279.354V201.561C279.354 222.294 289.891 226.033 301.447 226.373C306.546 226.373 314.703 225.693 319.802 225.353V256.964C314.703 257.644 306.886 258.324 297.028 258.324C268.477 258.324 242.984 242.688 243.324 209.038V100.27H216.132V71.3789H243.324V27.192H279.354V71.3789H317.083Z" fill="white"/>
<path d="M352.432 255.944V71.3789H387.442V100.61H389.481C396.279 80.8961 414.634 68.6597 436.387 68.6597C440.806 68.6597 447.944 68.9996 451.683 69.3395V104.009C448.624 103.33 440.126 101.97 432.648 101.97C407.496 101.97 388.801 119.305 388.801 143.438V255.944H352.432Z" fill="white"/>
<path d="M478.875 255.944V71.3789H515.244V255.944H478.875ZM497.229 42.8274C484.653 42.8274 474.116 33.3102 474.116 21.4137C474.116 9.51719 484.653 0 497.229 0C509.466 0 520.003 9.51719 520.003 21.4137C520.003 33.3102 509.466 42.8274 497.229 42.8274Z" fill="white"/>
<path d="M112.167 372.432C108.768 357.816 97.2113 348.299 77.1572 348.299C56.4233 348.299 41.4678 359.175 41.8077 373.111C41.4678 383.988 50.3051 391.806 70.6991 396.564L99.9305 403.362C133.92 410.84 150.236 427.155 150.576 453.328C150.236 486.638 122.364 510.431 75.1178 510.431C30.9309 510.431 4.4187 490.717 0 456.387H37.0491C40.1082 473.042 53.0243 481.199 74.7779 481.199C98.231 481.199 113.187 471.682 113.526 456.047C113.187 444.15 104.349 436.333 84.9749 431.914L56.0834 425.796C22.7733 418.318 5.43839 400.643 5.43839 375.151C5.43839 342.18 33.99 319.747 76.8173 319.747C117.945 319.747 143.438 340.821 147.177 372.432H112.167Z" fill="white"/>
<path d="M222.294 397.244V506.692H185.925V322.126H220.935V352.377H222.974C231.812 332.663 249.826 319.747 277.358 319.747C315.427 319.747 340.24 343.54 340.24 389.426V506.692H304.21V393.845C304.21 366.993 289.594 351.018 265.122 351.018C240.309 351.018 222.294 367.673 222.294 397.244Z" fill="white"/>
<path d="M375.929 454.687C375.929 412.54 411.618 401.663 444.929 399.284C457.165 398.434 484.867 396.904 493.534 396.564L493.194 381.949C493.194 361.215 480.618 348.978 455.805 348.978C434.392 348.978 421.476 358.836 417.737 372.432H381.707C385.106 341.841 413.658 319.747 457.165 319.747C486.396 319.747 529.564 330.624 529.564 383.988V506.692H494.214V481.539H492.854C485.717 495.475 468.722 510.771 438.131 510.771C403.121 510.771 375.929 490.717 375.929 454.687ZM411.279 455.027C411.279 472.702 425.894 481.879 446.288 481.879C475.86 481.879 493.534 462.165 493.534 440.072V423.077L450.027 426.136C426.234 427.835 411.279 436.673 411.279 455.027Z" fill="white"/>
<path d="M573.409 506.692V70.0194H608.759V100.61L611.818 99.9306C618.276 88.374 630.852 67.6401 664.842 67.6401C709.369 67.6401 742.34 102.65 742.34 162.812C742.34 222.294 710.049 258.324 665.182 258.324C631.532 258.324 618.276 237.93 611.818 225.693H608.759V366.193V506.692H573.409ZM609.099 162.132C609.099 200.881 626.094 227.393 657.025 227.393C688.975 227.393 705.63 199.181 705.63 162.132C705.63 125.763 689.315 98.571 657.025 98.571C625.754 98.571 609.099 123.724 609.099 162.132Z" fill="white"/>
</svg>
