<svg width="56" height="74" viewBox="0 0 56 74" fill="none" xmlns="http://www.w3.org/2000/svg">
<path fill-rule="evenodd" clip-rule="evenodd" d="M28.0005 56.9296C28.0003 56.9296 28.0002 56.9296 28 56.9296C27.9998 56.9296 27.9997 56.9296 27.9995 56.9296V74C26.9167 74 26.0218 73.1706 25.8452 72.1023C24.1439 61.8129 16.6791 55.4311 11.4022 51.3917C4.48644 46.2088 0 37.8694 0 28.4648C0 12.7441 12.536 0 28 0C43.464 0 56 12.7441 56 28.4648C56 37.8694 51.5136 46.2088 44.5978 51.3917C39.321 55.431 31.8561 61.8129 30.1548 72.1023C29.9782 73.1706 29.0833 74 28.0005 74V56.9296Z" fill="#BA1A1A"/>
<path d="M28.2917 34.0515C30.3535 34.0515 32.025 32.395 32.025 30.3515C32.025 28.3081 30.3535 26.6515 28.2917 26.6515C26.2298 26.6515 24.5583 28.3081 24.5583 30.3515C24.5583 32.395 26.2298 34.0515 28.2917 34.0515Z" fill="white"/>
<path d="M24.7917 18.7891L22.6567 21.1016H18.9583C17.675 21.1016 16.625 22.1422 16.625 23.414V37.289C16.625 38.5609 17.675 39.6015 18.9583 39.6015H37.625C38.9083 39.6015 39.9583 38.5609 39.9583 37.289V23.414C39.9583 22.1422 38.9083 21.1016 37.625 21.1016H33.9267L31.7917 18.7891H24.7917ZM28.2917 36.1328C25.0717 36.1328 22.4583 33.5428 22.4583 30.3515C22.4583 27.1603 25.0717 24.5703 28.2917 24.5703C31.5117 24.5703 34.125 27.1603 34.125 30.3515C34.125 33.5428 31.5117 36.1328 28.2917 36.1328Z" fill="white"/>
</svg>
