<svg width="56" height="74" viewBox="0 0 56 74" fill="none" xmlns="http://www.w3.org/2000/svg">
<path fill-rule="evenodd" clip-rule="evenodd" d="M28.0005 56.9296C28.0003 56.9296 28.0002 56.9296 28 56.9296C27.9998 56.9296 27.9997 56.9296 27.9995 56.9296V74C26.9167 74 26.0218 73.1706 25.8452 72.1023C24.1439 61.8129 16.6791 55.4311 11.4022 51.3917C4.48644 46.2088 0 37.8694 0 28.4648C0 12.7441 12.536 0 28 0C43.464 0 56 12.7441 56 28.4648C56 37.8694 51.5136 46.2088 44.5978 51.3917C39.321 55.431 31.8561 61.8129 30.1548 72.1023C29.9782 73.1706 29.0833 74 28.0005 74V56.9296Z" fill="#BA1A1A"/>
<path d="M32 22.2578V31.5078H35V40.7577H37V17.6328C34.24 17.6328 32 20.2228 32 22.2578ZM27 25.7265H25V17.6328H23V25.7265H21V17.6328H19V25.7265C19 28.2818 20.79 30.3515 23 30.3515V40.7577H25V30.3515C27.21 30.3515 29 28.2818 29 25.7265V17.6328H27V25.7265Z" fill="white"/>
</svg>
