<svg width="56" height="74" viewBox="0 0 56 74" fill="none" xmlns="http://www.w3.org/2000/svg">
<path fill-rule="evenodd" clip-rule="evenodd" d="M28.0005 56.9296C28.0003 56.9296 28.0002 56.9296 28 56.9296C27.9998 56.9296 27.9997 56.9296 27.9995 56.9296V74C26.9167 74 26.0218 73.1706 25.8452 72.1023C24.1439 61.8129 16.6791 55.4311 11.4022 51.3917C4.48644 46.2088 0 37.8694 0 28.4648C0 12.7441 12.536 0 28 0C43.464 0 56 12.7441 56 28.4648C56 37.8694 51.5136 46.2088 44.5978 51.3917C39.321 55.431 31.8561 61.8129 30.1548 72.1023C29.9782 73.1706 29.0833 74 28.0005 74V56.9296Z" fill="#BA1A1A"/>
<path d="M36 29.1953C36 27.9234 36.9 26.8828 38 26.8828V22.2578C38 20.9859 37.1 19.9453 36 19.9453H20C18.9 19.9453 18.01 20.9859 18.01 22.2578V26.8828C19.11 26.8828 20 27.9234 20 29.1953C20 30.4672 19.11 31.5078 18 31.5078V36.1328C18 37.4046 18.9 38.4453 20 38.4453H36C37.1 38.4453 38 37.4046 38 36.1328V31.5078C36.9 31.5078 36 30.4672 36 29.1953ZM31.58 34.7453L28 32.0859L24.42 34.7453L25.5 29.9815L22.21 26.8712L26.45 26.5822L28 22.0266L29.54 26.5937L33.78 26.8828L30.49 29.9931L31.58 34.7453Z" fill="white"/>
</svg>
