<svg width="56" height="74" viewBox="0 0 56 74" fill="none" xmlns="http://www.w3.org/2000/svg">
<path fill-rule="evenodd" clip-rule="evenodd" d="M28.0005 56.9296C28.0003 56.9296 28.0002 56.9296 28 56.9296C27.9998 56.9296 27.9997 56.9296 27.9995 56.9296V74C26.9167 74 26.0218 73.1706 25.8452 72.1023C24.1439 61.8129 16.6791 55.4311 11.4022 51.3917C4.48644 46.2088 0 37.8694 0 28.4648C0 12.7441 12.536 0 28 0C43.464 0 56 12.7441 56 28.4648C56 37.8694 51.5136 46.2088 44.5978 51.3917C39.321 55.431 31.8561 61.8129 30.1548 72.1023C29.9782 73.1706 29.0833 74 28.0005 74V56.9296Z" fill="#BA1A1A"/>
<path d="M32 29.1953L25 17.6328L18 29.1953H19.86L16 36.1328H23V40.7577H27V36.1328H34L30.14 29.1953H32Z" fill="white"/>
<path d="M36.14 29.1953H38L31 17.6328L28.61 21.5756L33.92 30.3515H31.97L35.19 36.1328H40L36.14 29.1953Z" fill="white"/>
<path d="M33 37.289H29V40.7577H33V37.289Z" fill="white"/>
</svg>
