<svg width="56" height="74" viewBox="0 0 56 74" fill="none" xmlns="http://www.w3.org/2000/svg">
<path fill-rule="evenodd" clip-rule="evenodd" d="M28.0005 56.9296C28.0003 56.9296 28.0002 56.9296 28 56.9296C27.9998 56.9296 27.9997 56.9296 27.9995 56.9296V74C26.9167 74 26.0218 73.1706 25.8452 72.1023C24.1439 61.8129 16.6791 55.4311 11.4022 51.3917C4.48644 46.2088 0 37.8694 0 28.4648C0 12.7441 12.536 0 28 0C43.464 0 56 12.7441 56 28.4648C56 37.8694 51.5136 46.2088 44.5978 51.3917C39.321 55.431 31.8561 61.8129 30.1548 72.1023C29.9782 73.1706 29.0833 74 28.0005 74V56.9296Z" fill="#BA1A1A"/>
<path d="M26.4352 36.9999C26.8052 36.4681 27.3752 36.1328 28.0052 36.1328C28.6352 36.1328 29.1952 36.4681 29.5652 36.9999C29.9552 36.8959 30.3252 36.7571 30.6852 36.5837L29.2652 32.9068C28.8752 33.0803 28.4452 33.1728 28.0052 33.1728C27.5452 33.1728 27.1052 33.0687 26.7052 32.8837L25.2752 36.5721C25.6552 36.7571 26.0352 36.9074 26.4352 36.9999ZM21.1552 26.8828C20.9952 27.565 20.9052 28.2818 20.9052 29.0218C20.9052 29.889 21.0252 30.7215 21.2352 31.5078C21.8652 31.5656 22.4552 31.9703 22.7952 32.6525C23.1252 33.3115 23.1452 34.0746 22.9052 34.7221C23.1752 35.0343 23.4652 35.3349 23.7752 35.6009L25.2952 31.6812C24.8252 31.0106 24.5452 30.155 24.5452 29.2184C24.5452 27.0331 26.0952 25.2756 28.0052 25.2756C29.9152 25.2756 31.4652 27.0447 31.4652 29.2184C31.4652 30.1665 31.1752 31.0337 30.6852 31.7159L32.1852 35.5893C32.5052 35.3118 32.8052 35.0112 33.0852 34.6759C32.8652 34.0399 32.8852 33.2884 33.2052 32.6525C33.5352 31.9934 34.1052 31.5887 34.7252 31.5078C34.9452 30.7215 35.0652 29.8775 35.0652 29.0103C35.0652 28.2703 34.9752 27.5418 34.8152 26.8597C34.1752 26.8134 33.5552 26.4087 33.2152 25.7034C32.8552 24.9865 32.8652 24.1309 33.1852 23.4487C32.2752 22.3156 31.0852 21.4716 29.7452 21.0784C29.3952 21.7953 28.7452 22.2578 28.0052 22.2578C27.2652 22.2578 26.6152 21.7837 26.2652 21.09C24.9252 21.4831 23.7352 22.304 22.8252 23.4372C23.1552 24.1309 23.1752 24.9981 22.8052 25.7265C22.4552 26.4434 21.8152 26.8481 21.1552 26.8828ZM19.8552 26.3972C19.0752 25.7034 18.8352 24.4315 19.3452 23.414C19.8552 22.3965 20.9252 21.9919 21.8352 22.4312C22.9452 21.0784 24.3952 20.0841 26.0152 19.6331C26.1552 18.5 26.9952 17.6328 28.0052 17.6328C29.0152 17.6328 29.8552 18.5 29.9852 19.6331C31.6152 20.0841 33.0552 21.0669 34.1652 22.4312C35.0752 21.9919 36.1552 22.3965 36.6552 23.414C37.1652 24.4315 36.9252 25.7034 36.1452 26.3972C36.3752 27.2875 36.4952 28.224 36.4952 29.1953C36.4952 30.1665 36.3752 31.1031 36.1452 31.9934C36.9252 32.6871 37.1652 33.959 36.6552 34.9765C36.1452 35.994 35.0752 36.3987 34.1652 35.9593C33.7652 36.4565 33.3152 36.8959 32.8252 37.289L34.1652 40.7577H32.3052L31.3352 38.2487C30.9052 38.4568 30.4552 38.6302 29.9952 38.7574C29.8552 39.8906 29.0152 40.7577 28.0052 40.7577C26.9952 40.7577 26.1552 39.8906 26.0252 38.7574C25.5452 38.6187 25.0852 38.4452 24.6452 38.2256L23.6652 40.7577H21.7852L23.1452 37.2543C22.6752 36.8728 22.2352 36.4334 21.8452 35.9593C20.9252 36.3987 19.8552 35.994 19.3452 34.9765C18.8352 33.959 19.0752 32.6871 19.8552 31.9934C19.6252 31.1031 19.5052 30.1665 19.5052 29.1953C19.5052 28.224 19.6252 27.2875 19.8552 26.3972Z" fill="white"/>
</svg>
