<svg width="48" height="48" viewBox="0 0 48 48" fill="none" xmlns="http://www.w3.org/2000/svg">
<circle cx="24" cy="24" r="24" fill="#8ED100"/>
<path d="M24 28.2C25.7673 28.2 27.2 26.7673 27.2 25C27.2 23.2327 25.7673 21.8 24 21.8C22.2327 21.8 20.8 23.2327 20.8 25C20.8 26.7673 22.2327 28.2 24 28.2Z" fill="white"/>
<path d="M21 15L19.17 17H16C14.9 17 14 17.9 14 19V31C14 32.1 14.9 33 16 33H32C33.1 33 34 32.1 34 31V19C34 17.9 33.1 17 32 17H28.83L27 15H21ZM24 30C21.24 30 19 27.76 19 25C19 22.24 21.24 20 24 20C26.76 20 29 22.24 29 25C29 27.76 26.76 30 24 30Z" fill="white"/>
</svg>
