<svg width="48" height="48" viewBox="0 0 48 48" fill="none" xmlns="http://www.w3.org/2000/svg">
<circle cx="24" cy="24" r="24" fill="#FF5722"/>
<path d="M32 24C32 22.9 32.9 22 34 22V18C34 16.9 33.1 16 32 16H16C14.9 16 14.01 16.9 14.01 18V22C15.11 22 16 22.9 16 24C16 25.1 15.11 26 14 26V30C14 31.1 14.9 32 16 32H32C33.1 32 34 31.1 34 30V26C32.9 26 32 25.1 32 24ZM27.58 28.8L24 26.5L20.42 28.8L21.5 24.68L18.21 21.99L22.45 21.74L24 17.8L25.54 21.75L29.78 22L26.49 24.69L27.58 28.8Z" fill="white"/>
</svg>
