<svg width="48" height="48" viewBox="0 0 48 48" fill="none" xmlns="http://www.w3.org/2000/svg">
<circle cx="24" cy="24" r="24" fill="#F29900"/>
<path d="M22.4352 30.75C22.8052 30.29 23.3752 30 24.0052 30C24.6352 30 25.1952 30.29 25.5652 30.75C25.9552 30.66 26.3252 30.54 26.6852 30.39L25.2652 27.21C24.8752 27.36 24.4452 27.44 24.0052 27.44C23.5452 27.44 23.1052 27.35 22.7052 27.19L21.2752 30.38C21.6552 30.54 22.0352 30.67 22.4352 30.75ZM17.1552 22C16.9952 22.59 16.9052 23.21 16.9052 23.85C16.9052 24.6 17.0252 25.32 17.2352 26C17.8652 26.05 18.4552 26.4 18.7952 26.99C19.1252 27.56 19.1452 28.22 18.9052 28.78C19.1752 29.05 19.4652 29.31 19.7752 29.54L21.2952 26.15C20.8252 25.57 20.5452 24.83 20.5452 24.02C20.5452 22.13 22.0952 20.61 24.0052 20.61C25.9152 20.61 27.4652 22.14 27.4652 24.02C27.4652 24.84 27.1752 25.59 26.6852 26.18L28.1852 29.53C28.5052 29.29 28.8052 29.03 29.0852 28.74C28.8652 28.19 28.8852 27.54 29.2052 26.99C29.5352 26.42 30.1052 26.07 30.7252 26C30.9452 25.32 31.0652 24.59 31.0652 23.84C31.0652 23.2 30.9752 22.57 30.8152 21.98C30.1752 21.94 29.5552 21.59 29.2152 20.98C28.8552 20.36 28.8652 19.62 29.1852 19.03C28.2752 18.05 27.0852 17.32 25.7452 16.98C25.3952 17.6 24.7452 18 24.0052 18C23.2652 18 22.6152 17.59 22.2652 16.99C20.9252 17.33 19.7352 18.04 18.8252 19.02C19.1552 19.62 19.1752 20.37 18.8052 21C18.4552 21.62 17.8152 21.97 17.1552 22ZM15.8552 21.58C15.0752 20.98 14.8352 19.88 15.3452 19C15.8552 18.12 16.9252 17.77 17.8352 18.15C18.9452 16.98 20.3952 16.12 22.0152 15.73C22.1552 14.75 22.9952 14 24.0052 14C25.0152 14 25.8552 14.75 25.9852 15.73C27.6152 16.12 29.0552 16.97 30.1652 18.15C31.0752 17.77 32.1552 18.12 32.6552 19C33.1652 19.88 32.9252 20.98 32.1452 21.58C32.3752 22.35 32.4952 23.16 32.4952 24C32.4952 24.84 32.3752 25.65 32.1452 26.42C32.9252 27.02 33.1652 28.12 32.6552 29C32.1452 29.88 31.0752 30.23 30.1652 29.85C29.7652 30.28 29.3152 30.66 28.8252 31L30.1652 34H28.3052L27.3352 31.83C26.9052 32.01 26.4552 32.16 25.9952 32.27C25.8552 33.25 25.0152 34 24.0052 34C22.9952 34 22.1552 33.25 22.0252 32.27C21.5452 32.15 21.0852 32 20.6452 31.81L19.6652 34H17.7852L19.1452 30.97C18.6752 30.64 18.2352 30.26 17.8452 29.85C16.9252 30.23 15.8552 29.88 15.3452 29C14.8352 28.12 15.0752 27.02 15.8552 26.42C15.6252 25.65 15.5052 24.84 15.5052 24C15.5052 23.16 15.6252 22.35 15.8552 21.58Z" fill="white"/>
</svg>
